<svg width="15" height="15" viewBox="0 0 15 15" fill="none" xmlns="http://www.w3.org/2000/svg">
<g clip-path="url(#clip0_4_28)">
<path d="M11.25 -3.8147e-06H5.00005C4.39269 0.00079517 3.79873 0.178562 3.2908 0.511558C2.78287 0.844554 2.38299 1.31835 2.14005 1.875H1.25005C1.08429 1.875 0.925314 1.94084 0.808104 2.05805C0.690894 2.17526 0.625046 2.33424 0.625046 2.5C0.625046 2.66576 0.690894 2.82473 0.808104 2.94194C0.925314 3.05915 1.08429 3.125 1.25005 3.125H1.87505V4.375H1.25005C1.08429 4.375 0.925314 4.44084 0.808104 4.55805C0.690894 4.67526 0.625046 4.83424 0.625046 5C0.625046 5.16576 0.690894 5.32473 0.808104 5.44194C0.925314 5.55915 1.08429 5.625 1.25005 5.625H1.87505V6.875H1.25005C1.08429 6.875 0.925314 6.94084 0.808104 7.05805C0.690894 7.17526 0.625046 7.33424 0.625046 7.5C0.625046 7.66576 0.690894 7.82473 0.808104 7.94194C0.925314 8.05915 1.08429 8.125 1.25005 8.125H1.87505V9.375H1.25005C1.08429 9.375 0.925314 9.44084 0.808104 9.55805C0.690894 9.67526 0.625046 9.83424 0.625046 10C0.625046 10.1658 0.690894 10.3247 0.808104 10.4419C0.925314 10.5591 1.08429 10.625 1.25005 10.625H1.87505V11.875H1.25005C1.08429 11.875 0.925314 11.9408 0.808104 12.0581C0.690894 12.1753 0.625046 12.3342 0.625046 12.5C0.625046 12.6658 0.690894 12.8247 0.808104 12.9419C0.925314 13.0591 1.08429 13.125 1.25005 13.125H2.14005C2.38299 13.6816 2.78287 14.1554 3.2908 14.4884C3.79873 14.8214 4.39269 14.9992 5.00005 15H11.25C12.0785 14.999 12.8728 14.6694 13.4587 14.0836C14.0445 13.4978 14.3741 12.7035 14.375 11.875V3.125C14.3741 2.2965 14.0445 1.50222 13.4587 0.916384C12.8728 0.330547 12.0785 0.000988596 11.25 -3.8147e-06V-3.8147e-06ZM13.125 11.875C13.125 12.3723 12.9275 12.8492 12.5759 13.2008C12.2242 13.5525 11.7473 13.75 11.25 13.75H5.00005C4.50276 13.75 4.02585 13.5525 3.67422 13.2008C3.32259 12.8492 3.12505 12.3723 3.12505 11.875V3.125C3.12505 2.62772 3.32259 2.1508 3.67422 1.79917C4.02585 1.44754 4.50276 1.25 5.00005 1.25H11.25C11.7473 1.25 12.2242 1.44754 12.5759 1.79917C12.9275 2.1508 13.125 2.62772 13.125 3.125V11.875ZM8.12505 7.5C8.62233 7.5 9.09924 7.30245 9.45087 6.95082C9.8025 6.59919 10 6.12228 10 5.625C10 5.12772 9.8025 4.6508 9.45087 4.29917C9.09924 3.94754 8.62233 3.75 8.12505 3.75C7.62776 3.75 7.15085 3.94754 6.79922 4.29917C6.44759 4.6508 6.25005 5.12772 6.25005 5.625C6.25005 6.12228 6.44759 6.59919 6.79922 6.95082C7.15085 7.30245 7.62776 7.5 8.12505 7.5V7.5ZM11.25 11.25C11.25 11.4158 11.1842 11.5747 11.067 11.6919C10.9498 11.8091 10.7908 11.875 10.625 11.875C10.4593 11.875 10.3003 11.8091 10.1831 11.6919C10.0659 11.5747 10 11.4158 10 11.25C10 10.7527 9.8025 10.2758 9.45087 9.92417C9.09924 9.57254 8.62233 9.375 8.12505 9.375C7.62776 9.375 7.15085 9.57254 6.79922 9.92417C6.44759 10.2758 6.25005 10.7527 6.25005 11.25C6.25005 11.4158 6.1842 11.5747 6.06699 11.6919C5.94978 11.8091 5.79081 11.875 5.62505 11.875C5.45929 11.875 5.30031 11.8091 5.1831 11.6919C5.06589 11.5747 5.00005 11.4158 5.00005 11.25C5.13192 7.12 11.1194 7.12125 11.25 11.25Z" fill="#B0A88A"/>
</g>
<defs>
<clipPath id="clip0_4_28">
<rect width="15" height="15" fill="white"/>
</clipPath>
</defs>
</svg>
