<svg width="15" height="15" viewBox="0 0 15 15" fill="none" xmlns="http://www.w3.org/2000/svg">
<g clip-path="url(#clip0_4_46)">
<path d="M11.6132 1.33793L7.69756 0.0323002C7.56936 -0.0104005 7.43077 -0.0104005 7.30256 0.0323002L3.38694 1.33793C2.76438 1.54473 2.22282 1.94246 1.83921 2.47462C1.45561 3.00678 1.24946 3.64629 1.25006 4.3023V7.50043C1.25006 12.2273 7.00006 14.8379 7.24631 14.9467C7.3262 14.9822 7.41265 15.0005 7.50006 15.0005C7.58748 15.0005 7.67392 14.9822 7.75381 14.9467C8.00006 14.8379 13.7501 12.2273 13.7501 7.50043V4.3023C13.7507 3.64629 13.5445 3.00678 13.1609 2.47462C12.7773 1.94246 12.2357 1.54473 11.6132 1.33793V1.33793ZM12.5001 7.50043C12.5001 10.9098 8.55069 13.1461 7.50006 13.6811C6.44819 13.1479 2.50006 10.9186 2.50006 7.50043V4.3023C2.5001 3.90872 2.62398 3.52514 2.85417 3.20589C3.08435 2.88664 3.40915 2.64792 3.78256 2.52355L7.50006 1.28418L11.2176 2.52355C11.591 2.64792 11.9158 2.88664 12.146 3.20589C12.3761 3.52514 12.5 3.90872 12.5001 4.3023V7.50043Z" fill="#B0A88A"/>
<path d="M9.56246 5.18771L6.94496 7.81271L5.54246 6.35021C5.48618 6.28867 5.41815 6.23902 5.34237 6.20418C5.2666 6.16934 5.18463 6.15001 5.10127 6.14734C5.01792 6.14467 4.93487 6.15871 4.85703 6.18863C4.77918 6.21856 4.70811 6.26375 4.64801 6.32157C4.5879 6.37938 4.53997 6.44864 4.50704 6.52526C4.47412 6.60188 4.45686 6.68432 4.45628 6.76771C4.45571 6.85111 4.47183 6.93378 4.5037 7.01085C4.53556 7.08791 4.58253 7.15783 4.64184 7.21646L6.08309 8.71647C6.19057 8.83256 6.32049 8.92565 6.46497 8.99011C6.60946 9.05456 6.76552 9.08904 6.92371 9.09147H6.94434C7.09937 9.09198 7.25296 9.06169 7.3962 9.00236C7.53943 8.94302 7.66945 8.85583 7.77871 8.74584L10.4487 6.07583C10.507 6.01764 10.5533 5.94853 10.5849 5.87246C10.6165 5.79638 10.6328 5.71482 10.6329 5.63243C10.633 5.55005 10.6169 5.46846 10.5854 5.39231C10.554 5.31617 10.5078 5.24696 10.4496 5.18865C10.3915 5.13033 10.3223 5.08405 10.2463 5.05244C10.1702 5.02083 10.0886 5.00452 10.0063 5.00443C9.92387 5.00435 9.84227 5.02049 9.76613 5.05193C9.68998 5.08338 9.62078 5.12952 9.56246 5.18771V5.18771Z" fill="#B0A88A"/>
</g>
<defs>
<clipPath id="clip0_4_46">
<rect width="15" height="15" fill="white"/>
</clipPath>
</defs>
</svg>
