<svg width="13" height="15" viewBox="0 0 13 15" fill="none" xmlns="http://www.w3.org/2000/svg">
<path d="M6.50006 9.37507C6.3343 9.37507 6.17533 9.30923 6.05812 9.19202C5.94091 9.07481 5.87506 8.91583 5.87506 8.75007V3.75007C5.87506 3.58431 5.94091 3.42534 6.05812 3.30813C6.17533 3.19092 6.3343 3.12507 6.50006 3.12507C6.66582 3.12507 6.82479 3.19092 6.94201 3.30813C7.05922 3.42534 7.12506 3.58431 7.12506 3.75007V8.75007C7.12506 8.91583 7.05922 9.07481 6.94201 9.19202C6.82479 9.30923 6.66582 9.37507 6.50006 9.37507ZM6.99569 14.8501C8.34569 14.3076 12.7501 12.1744 12.7501 7.52695V4.29507C12.7508 3.63821 12.5442 2.99787 12.1597 2.46527C11.7752 1.93267 11.2325 1.53498 10.6088 1.32882L6.69694 0.0319493C6.56923 -0.0111559 6.4309 -0.0111559 6.30319 0.0319493L2.39131 1.32882C1.76763 1.53498 1.22491 1.93267 0.840439 2.46527C0.455971 2.99787 0.24937 3.63821 0.250063 4.29507V7.52695C0.250063 11.6282 4.62819 14.137 5.97069 14.8082C6.14049 14.8892 6.31778 14.9535 6.50006 15.0001C6.66953 14.9654 6.83544 14.9152 6.99569 14.8501V14.8501ZM10.2151 2.51507C10.5891 2.63908 10.9146 2.87781 11.1453 3.19735C11.376 3.51688 11.5001 3.90098 11.5001 4.29507V7.52695C11.5001 11.3913 7.69569 13.2213 6.52944 13.6901C5.34944 13.1001 1.50006 10.9119 1.50006 7.52695V4.29507C1.50001 3.90098 1.62414 3.51688 1.85481 3.19735C2.08549 2.87781 2.41098 2.63908 2.78506 2.51507L6.50006 1.28382L10.2151 2.51507ZM6.50006 10.6251C6.37645 10.6251 6.25561 10.6617 6.15283 10.7304C6.05005 10.7991 5.96994 10.8967 5.92264 11.0109C5.87533 11.1251 5.86296 11.2508 5.88707 11.372C5.91119 11.4932 5.97071 11.6046 6.05812 11.692C6.14553 11.7794 6.25689 11.8389 6.37813 11.8631C6.49937 11.8872 6.62504 11.8748 6.73924 11.8275C6.85344 11.7802 6.95106 11.7001 7.01973 11.5973C7.08841 11.4945 7.12506 11.3737 7.12506 11.2501C7.12506 11.0843 7.05922 10.9253 6.94201 10.8081C6.82479 10.6909 6.66582 10.6251 6.50006 10.6251Z" fill="#B0A88A"/>
</svg>
